<svg width="20" height="20" viewBox="0 0 20 20" fill="none" xmlns="http://www.w3.org/2000/svg">
<path d="M2 10C2 5.58172 5.58172 2 10 2C12.2045 2 14.2014 2.89135 15.6493 4.33538L14.2125 4.02286C13.6728 3.90547 13.1402 4.2478 13.0228 4.78747C12.9054 5.32713 13.2478 5.85978 13.7874 5.97716L17.7875 6.84725C18.0831 6.91155 18.3919 6.83856 18.6275 6.64873C18.8631 6.45889 19 6.17262 19 5.87009L19 1.99999C19 1.44771 18.5523 0.999996 18 1C17.4477 1 17 1.44772 17 2.00001L17 2.85875C15.1969 1.09124 12.7262 0 10 0C4.47715 0 0 4.47715 0 10C0 15.5228 4.47715 20 10 20C13.8713 20 17.2271 17.7999 18.8883 14.5864C19.1419 14.0958 18.9498 13.4925 18.4592 13.2389C17.9686 12.9853 17.3653 13.1774 17.1117 13.668C15.7804 16.2432 13.0945 18 10 18C5.58172 18 2 14.4183 2 10Z" fill="#2DC275"/>
</svg>
